<svg width="26" height="26" viewBox="0 0 26 26" fill="none" xmlns="http://www.w3.org/2000/svg">
<g clip-path="url(#clip0_7_18)">
<path d="M9.75 13C11.0356 13 12.2923 12.6188 13.3612 11.9046C14.4301 11.1903 15.2632 10.1752 15.7552 8.98745C16.2472 7.79973 16.3759 6.49279 16.1251 5.23192C15.8743 3.97104 15.2552 2.81285 14.3462 1.90381C13.4372 0.994768 12.279 0.375703 11.0181 0.124899C9.75721 -0.125905 8.45028 0.00281636 7.26256 0.494786C6.07484 0.986756 5.05968 1.81988 4.34545 2.8888C3.63122 3.95772 3.25 5.21443 3.25 6.50001C3.25172 8.22338 3.93709 9.87569 5.15571 11.0943C6.37432 12.3129 8.02662 12.9983 9.75 13ZM9.75 2.16667C10.6071 2.16667 11.4449 2.42082 12.1575 2.89697C12.8701 3.37312 13.4255 4.0499 13.7535 4.84171C14.0815 5.63352 14.1673 6.50481 14.0001 7.3454C13.8329 8.18598 13.4202 8.95811 12.8141 9.56414C12.2081 10.1702 11.436 10.5829 10.5954 10.7501C9.75481 10.9173 8.88352 10.8315 8.0917 10.5035C7.29989 10.1755 6.62312 9.62009 6.14696 8.90748C5.67081 8.19486 5.41667 7.35706 5.41667 6.50001C5.41667 5.35073 5.87321 4.24853 6.68587 3.43587C7.49853 2.62322 8.60073 2.16667 9.75 2.16667Z" fill="#F3F3F3"/>
<path d="M22.75 10.8333V7.58331H20.5833V10.8333H17.3333V13H20.5833V16.25H22.75V13H26V10.8333H22.75Z" fill="#F3F3F3"/>
<path d="M14.1299 15.1667H5.37008C3.94638 15.1684 2.58147 15.7347 1.57476 16.7414C0.568047 17.7482 0.00172015 19.1131 0 20.5368L0 26H2.16667V20.5368C2.16753 19.6874 2.5053 18.8731 3.10588 18.2726C3.70645 17.672 4.52075 17.3342 5.37008 17.3334H14.1299C14.9792 17.3342 15.7936 17.672 16.3941 18.2726C16.9947 18.8731 17.3325 19.6874 17.3333 20.5368V26H19.5V20.5368C19.4983 19.1131 18.9319 17.7482 17.9252 16.7414C16.9185 15.7347 15.5536 15.1684 14.1299 15.1667Z" fill="#F3F3F3"/>
</g>
<defs>
<clipPath id="clip0_7_18">
<rect width="26" height="26" fill="white"/>
</clipPath>
</defs>
</svg>
