<svg width="23" height="25" viewBox="0 0 23 25" fill="none" xmlns="http://www.w3.org/2000/svg">
<path d="M11.4959 0C12.3583 0 13.0575 0.699162 13.0575 1.56161V6.76699C13.0575 7.62944 12.3583 8.3286 11.4959 8.3286C10.6334 8.3286 9.93427 7.62944 9.93427 6.76699V1.56161C9.93427 0.699162 10.6334 0 11.4959 0Z" fill="#F3F3F3"/>
<path d="M15.1396 5.14295C15.1319 5.66716 15.3962 6.15799 15.8382 6.44011C19.7633 8.8383 21.001 13.9644 18.6028 17.8894C16.2046 21.8145 11.0786 23.0523 7.15348 20.6541C3.22837 18.2559 1.9906 13.1298 4.38884 9.20474C5.07409 8.08321 6.01506 7.13976 7.13479 6.45153C7.58428 6.16941 7.85571 5.67463 7.8521 5.14392C7.85449 4.28148 7.15728 3.58041 6.29483 3.57802C5.99862 3.57719 5.70825 3.66064 5.45766 3.81865C0.084997 7.15581 -1.56509 14.2164 1.77202 19.5891C5.10913 24.9617 12.1698 26.6118 17.5424 23.2747C22.915 19.9375 24.5651 12.8769 21.228 7.5043C20.2991 6.00881 19.0379 4.74762 17.5424 3.8187C16.8105 3.357 15.843 3.57602 15.3813 4.30788C15.2235 4.55783 15.1398 4.84736 15.1396 5.14295Z" fill="#F3F3F3"/>
</svg>
